<svg width="24" height="24" viewBox="0 0 24 24" fill="none" xmlns="http://www.w3.org/2000/svg">
<path d="M13.6998 8.59783L8.55199 13.6539C8.0969 14.1014 7.84123 14.7083 7.84123 15.3412C7.84123 15.9741 8.0969 16.5811 8.55199 17.0286C9.00708 17.4761 9.62432 17.7275 10.2679 17.7275C10.9115 17.7275 11.5287 17.4761 11.9838 17.0286L19.5024 9.6472C20.4125 8.75218 20.9239 7.53827 20.9239 6.27252C20.9239 5.00677 20.4125 3.79286 19.5024 2.89784C18.5922 2.00282 17.3577 1.5 16.0705 1.5C14.7833 1.5 13.5489 2.00282 12.6387 2.89784L5.13227 10.2792C3.767 11.6217 3 13.4426 3 15.3412C3 17.2398 3.767 19.0607 5.13227 20.4032C6.49755 21.7458 8.34925 22.5 10.28 22.5C12.2108 22.5 14.0625 21.7458 15.4278 20.4032L21 14.9239" stroke="#686777" stroke-width="1.5" stroke-linecap="round" stroke-linejoin="round"/>
</svg>
