<svg width="22" height="22" viewBox="0 0 22 22" fill="none" xmlns="http://www.w3.org/2000/svg">
<path fill-rule="evenodd" clip-rule="evenodd" d="M18.2379 18.0699C15.1817 21.1263 10.6563 21.7867 6.95292 20.074C6.40621 19.8539 5.95799 19.676 5.53188 19.676C4.34499 19.683 2.86767 20.8339 2.09986 20.067C1.33206 19.2991 2.48377 17.8206 2.48377 16.6266C2.48377 16.2004 2.31292 15.7602 2.09283 15.2124C0.379335 11.5096 1.04061 6.98269 4.09676 3.92721C7.9981 0.0244319 14.3365 0.0244322 18.2379 3.9262C22.1462 7.83501 22.1392 14.1681 18.2379 18.0699Z" stroke="#686777" stroke-width="1.5" stroke-linecap="round" stroke-linejoin="round"/>
<path d="M15.1059 11.4131H15.1149" stroke="#686777" stroke-width="2" stroke-linecap="round" stroke-linejoin="round"/>
<path d="M11.0971 11.4131H11.1061" stroke="#686777" stroke-width="2" stroke-linecap="round" stroke-linejoin="round"/>
<path d="M7.08779 11.4131H7.09679" stroke="#686777" stroke-width="2" stroke-linecap="round" stroke-linejoin="round"/>
</svg>
