<svg width="64" height="64" viewBox="0 0 64 64" fill="none" xmlns="http://www.w3.org/2000/svg">
<path fill-rule="evenodd" clip-rule="evenodd" d="M28.134 20.1013C34.6495 20.1013 39.9314 25.4285 39.9314 32V47.9494C39.9314 50.1865 41.7295 52 43.9475 52H52.9838C55.2019 52 57 50.1865 57 47.9494C57 45.7123 55.2019 43.8987 52.9838 43.8987H47.9637V32C47.9637 20.9543 39.0856 12 28.134 12C17.1824 12 8.3043 20.9543 8.3043 32C8.3043 43.0457 17.1824 52 28.134 52H28.636C30.854 52 32.6521 50.1865 32.6521 47.9494V37.6962C32.6521 35.4591 30.854 33.6456 28.636 33.6456C26.4179 33.6456 24.6199 35.4591 24.6199 37.6962V43.3619C19.8206 41.8536 16.3366 37.3371 16.3366 32C16.3366 25.4285 21.6185 20.1013 28.134 20.1013Z" fill="#554AF0"/>
</svg>
